<svg width="2767" height="574" xmlns="http://www.w3.org/2000/svg" xmlns:xlink="http://www.w3.org/1999/xlink" xml:space="preserve" overflow="hidden"><defs><clipPath id="clip0"><rect x="279" y="952" width="2767" height="574"/></clipPath></defs><g clip-path="url(#clip0)" transform="translate(-279 -952)"><path d="M3046 1233.83C3041.89 1259 3028.18 1273.82 3006.09 1277.86 2984.57 1281.79 2966.78 1272.36 2953.91 1250.67 2952.68 1248.6 2949.49 1246.44 2947.2 1246.44 2869.25 1246.22 2791.27 1246.26 2712.54 1246.26 2712.54 1316.31 2712.54 1385.74 2712.54 1456 2695.36 1456 2678.94 1456 2662 1456 2662 1305.6 2662 1155.4 2662 1005 2678.73 1005 2694.93 1005 2711.91 1005 2711.91 1073.15 2711.91 1140.87 2711.91 1209.24 2715.61 1209.44 2718.56 1209.74 2721.52 1209.74 2796.14 1209.76 2870.78 1209.83 2945.4 1209.54 2949.35 1209.53 2954.77 1207.49 2956.98 1204.52 2971.22 1185.51 2991.57 1177.87 3012.52 1184.64 3033.67 1191.47 3045.77 1208.94 3046 1233.83M2975.59 1258.95C2995.31 1271.73 3017.67 1267.63 3028.8 1249.19 3039.41 1231.64 3033.32 1208.89 3015.36 1198.9 3000.02 1190.39 2980.18 1194.45 2969.46 1208.3 2957.66 1223.55 2959.56 1242.41 2975.59 1258.95Z" fill="#F9F9F9" fill-rule="evenodd"/><path d="M1786.24 1144.81C1786.45 1167.88 1786.76 1190.96 1786.73 1214.04 1786.73 1216.41 1785.26 1219.34 1783.53 1221.06 1759.49 1244.95 1735.28 1268.67 1710.54 1293 1710.37 1290.38 1710.06 1287.9 1710.06 1285.41 1710.02 1229.02 1709.88 1172.62 1710.25 1116.23 1710.29 1111.47 1712.59 1105.54 1715.9 1102.17 1762.8 1054.37 1809.96 1006.82 1857.41 959.565 1860.96 956.027 1867.17 953.431 1872.19 953.347 1904.84 952.798 1937.5 953.065 1973 953.065 1910.38 1016.17 1849.3 1077.73 1787.5 1140.34 1786.61 1142.53 1786.42 1143.67 1786.24 1144.81Z" fill="#FCFCFC" fill-rule="evenodd"/><path d="M1249.04 1137.09C1196.12 1188.64 1143.71 1239.68 1092.04 1290 1092.04 1285.31 1092.04 1277.69 1092.04 1270.08 1092.04 1244.2 1091.87 1218.33 1092.23 1192.45 1092.28 1188.52 1093.7 1183.52 1096.34 1180.85 1170.06 1106.2 1244.03 1031.78 1317.96 957.339 1318.9 956.398 1320.01 955.63 1321.99 954 1322.39 956.965 1322.92 959.046 1322.92 961.129 1322.97 992.451 1323.17 1023.78 1322.68 1055.09 1322.61 1059.53 1320.15 1064.92 1317.02 1068.16 1294.79 1091.22 1272.1 1113.83 1249.04 1137.09Z" fill="#FBFBFB" fill-rule="evenodd"/><path d="M441.421 1209.65C496.895 1209.65 551.243 1209.65 606.335 1209.65 606.335 1141.07 606.335 1073.34 606.335 1005 625.284 1005 643.493 1005 662 1005 662 1155.28 662 1305.29 662 1456 644.003 1456 626.178 1456 606.981 1456 606.981 1386.48 606.981 1316.83 606.981 1246.2 602.375 1246.2 599.115 1246.2 595.854 1246.2 524.155 1246.18 452.454 1246.18 380.755 1246.14 375.482 1246.13 371.448 1245.86 368.466 1251.94 359.011 1271.24 339.429 1281.32 320.19 1278.24 298.287 1274.74 281.48 1257.49 279.288 1236.28 276.112 1205.54 299.6 1180.47 329.764 1182.49 345.633 1183.55 357.425 1190.96 365.068 1203.19 368.395 1208.51 372.126 1209.85 378.357 1209.75 398.996 1209.44 419.649 1209.64 441.421 1209.65M648.861 1270.04C648.861 1185.61 648.861 1101.18 648.861 1017.13 638.459 1017.13 629.589 1017.13 620.558 1017.13 620.558 1159.76 620.558 1301.75 620.558 1444.15 630.13 1444.15 638.957 1444.15 648.861 1444.15 648.861 1386.48 648.861 1329.28 648.861 1270.04M354.815 1250.25C356.373 1246.44 358.405 1242.73 359.408 1238.8 364.194 1220.04 351.999 1199.32 334.044 1195.28 315.838 1191.17 298.897 1201.87 293.569 1220.83 288.801 1237.79 297.565 1256.87 313.247 1263.65 328.39 1270.2 342.163 1266.08 354.815 1250.25Z" fill="#F6F6F6" fill-rule="evenodd"/><path d="M1990.68 1037.97C1990.68 1009.82 1990.68 982.691 1990.68 952 2005.53 967.307 2018.32 980.566 2031.2 993.748 2041.17 1003.96 2050.91 1014.43 2061.41 1024.09 2066.96 1029.2 2068.81 1034.58 2068.49 1041.86 2067.97 1053.36 2068.35 1064.9 2068.35 1077.74 2082.25 1077.74 2095.7 1077.14 2109.06 1078.04 2114.5 1078.41 2120.96 1080.73 2124.86 1084.39 2148.56 1106.73 2171.69 1129.71 2195 1152.48 2194.49 1153.3 2194 1154.13 2193.49 1154.95 2152.22 1154.95 2110.93 1154.95 2068.61 1154.95 2068.61 1175.35 2068.61 1194.82 2068.61 1217 2047.94 1196.23 2029.97 1176.39 2010.06 1158.75 1995.18 1145.56 1988.64 1131.53 1990.24 1111.36 1992.14 1087.38 1990.68 1063.12 1990.68 1037.97Z" fill="#FBFBFB" fill-rule="evenodd"/><path d="M1329.74 1078.5C1329.74 1036.72 1329.74 995.93 1329.74 954 1344.39 968.394 1358.24 982.004 1372.08 995.628 1373.53 997.058 1374.92 998.558 1376.32 1000.04 1386.35 1010.63 1400.25 1019.67 1405.32 1032.27 1410.39 1044.88 1406.69 1061.04 1406.75 1075.65 1406.82 1091.31 1407.14 1106.98 1406.56 1122.62 1406.41 1126.82 1404.41 1131.92 1401.52 1134.92 1376.48 1160.84 1351.12 1186.46 1325.6 1211.91 1323.02 1214.48 1318.75 1216.72 1315.24 1216.76 1281.67 1217.12 1248.11 1216.97 1212 1216.97 1215.6 1213.03 1217.81 1210.43 1220.21 1208.01 1252.54 1175.43 1284.59 1142.57 1317.44 1110.53 1326.69 1101.52 1331.92 1092.36 1329.74 1078.5Z" fill="#FAFAFA" fill-rule="evenodd"/><path d="M1444.28 1082.9C1444.49 1064.87 1440.23 1046.04 1446.19 1031.36 1451.98 1017.06 1468.1 1006.88 1479.92 995.12 1493.29 981.806 1506.91 968.743 1521 955 1521 1068.19 1521 1180.66 1521 1295 1508.19 1282.14 1496.5 1270.48 1484.9 1258.74 1474.61 1248.32 1464.95 1237.2 1454.02 1227.51 1446.06 1220.46 1443.93 1212.75 1444.06 1202.53 1444.59 1163 1444.28 1123.46 1444.28 1082.9Z" fill="#F9F9F9" fill-rule="evenodd"/><path d="M882 1109.94C881.21 1113.23 879.741 1116.51 879.732 1119.8 879.601 1173.96 879.652 1228.12 879.662 1282.28 879.664 1285.92 879.662 1289.56 879.662 1295 876.908 1292.89 875.334 1291.95 874.082 1290.69 851.497 1267.94 828.852 1245.24 806.535 1222.22 804.044 1219.65 802.188 1215.25 802.18 1211.69 801.944 1126.87 802 1042.05 802.022 957.237 802.022 956.616 802.279 955.995 802.936 953 809.495 959.885 815.101 965.928 820.879 971.805 838.567 989.801 856.511 1007.56 873.873 1025.86 876.978 1029.13 879.262 1034.51 879.414 1039 880.19 1061.77 880.139 1084.56 881.206 1108.2 882.033 1109.06 882 1109.94 882 1109.94Z" fill="#FBFBFB" fill-rule="evenodd"/><path d="M2331.93 1115.57C2329.61 1113.62 2327.3 1111.66 2323.57 1108.52 2323.57 1114.9 2323.57 1120.15 2323.57 1125.39 2323.57 1153.62 2323.65 1181.84 2323.43 1210.06 2323.39 1213.45 2322.59 1217.9 2320.38 1220.06 2295.8 1244.07 2270.86 1267.71 2246.5 1291 2246.48 1290.89 2246.03 1288.46 2246.03 1286.04 2245.99 1203.75 2245.95 1121.47 2246.16 1039.19 2246.18 1035.23 2247.41 1030.12 2250.03 1027.5 2274.09 1003.47 2298.59 979.877 2323.12 956 2323.12 1005.99 2323.12 1056.7 2323.12 1107.74 2326.77 1107.74 2329.39 1107.74 2332.93 1108.56 2333.22 1111.44 2332.56 1113.5 2331.93 1115.57Z" fill="#FBFBFB" fill-rule="evenodd"/><path d="M2352.8 953C2401.84 953 2449.89 953 2499.46 953 2499.46 956.992 2499.46 960.535 2499.46 964.078 2499.46 982.035 2498.32 1000.09 2499.78 1017.92 2501.15 1034.53 2496.14 1046.41 2483.6 1057.45 2466.68 1072.36 2451.51 1089.24 2433.86 1107 2433.86 1080.47 2433.86 1056.08 2433.86 1030.87 2398.97 1030.87 2365.28 1030.87 2331 1030.87 2331 1004.78 2331 979.531 2331 953 2337.85 953 2344.81 953 2352.8 953Z" fill="#FCFCFC" fill-rule="evenodd"/><path d="M882.18 1110.73C881.966 1110.09 881.999 1109.21 882.005 1108.77 916.392 1108.17 950.773 1107.91 985.151 1108.03 988.05 1108.04 991.598 1109.9 993.734 1112.01 1016.92 1135 1039.92 1158.16 1062.81 1181.44 1064.78 1183.43 1066.79 1186.51 1066.81 1189.1 1067.07 1223.68 1066.99 1258.27 1066.99 1296 1004.17 1233.18 943.281 1172.28 882.18 1110.73Z" fill="#FDFDFD" fill-rule="evenodd"/><path d="M2332 1116.37C2332.37 1113.67 2333.03 1111.61 2333.68 1108.88 2365.45 1108.11 2397.23 1107.88 2429 1108.05 2431.85 1108.07 2435.29 1110.02 2437.4 1112.12 2460.21 1134.6 2482.83 1157.25 2505.32 1180.02 2507.49 1182.21 2509.77 1185.56 2509.79 1188.4 2510.1 1223.3 2509.98 1258.21 2509.98 1289 2451.94 1232.82 2392.1 1174.91 2332 1116.37Z" fill="#FCFCFC" fill-rule="evenodd"/><path d="M1532.43 1295.92C1530.29 1294.27 1528.17 1292.64 1528.16 1291 1527.94 1267.17 1528.01 1243.34 1528.01 1218.2 1544.75 1218.2 1561.04 1217.9 1577.32 1218.35 1584.04 1218.54 1588.68 1216.35 1593.34 1211.63 1619.41 1185.21 1645.79 1159.08 1673.91 1131 1673.91 1140.51 1673.91 1147.79 1673.91 1155.07 1673.91 1180.98 1674.24 1206.89 1673.63 1232.78 1673.5 1237.81 1670.86 1243.85 1667.38 1247.54 1653.57 1262.18 1639.22 1276.34 1624.47 1290.03 1620.98 1293.27 1615.19 1295.56 1610.4 1295.66 1584.75 1296.21 1559.09 1295.93 1532.43 1295.92Z" fill="#FCFCFC" fill-rule="evenodd"/><path d="M1066.87 1111.76C1066.87 1133.48 1066.87 1154.17 1066.87 1175 1041.62 1150.19 1017.02 1126.16 992.683 1101.87 990.856 1100.05 990.125 1096.38 990.114 1093.57 989.961 1047.47 990.006 1001.36 990.006 954 992.156 955.531 993.746 956.345 994.935 957.555 1016.69 979.679 1038.26 1002 1060.24 1023.9 1065.29 1028.93 1067.11 1034.04 1067 1041.05 1066.62 1064.27 1066.86 1087.51 1066.87 1111.76Z" fill="#FCFCFC" fill-rule="evenodd"/><path d="M1786.05 1144.71C1785.89 1144.16 1786.08 1143.02 1786.69 1141.48 1821.5 1141.03 1855.88 1140.88 1890.25 1141.1 1893.54 1141.12 1897.61 1142.7 1899.96 1144.96 1912.45 1156.99 1924.7 1169.3 1936.57 1181.94 1939.02 1184.54 1940.76 1188.93 1940.79 1192.52 1941.1 1226.16 1940.98 1259.81 1940.98 1296 1937.46 1292.65 1935.2 1290.6 1933.06 1288.44 1886.74 1241.89 1840.46 1195.31 1794.07 1148.84 1792.01 1146.78 1788.98 1145.68 1786.05 1144.71Z" fill="#FBFBFB" fill-rule="evenodd"/><path d="M2152.27 1029.96C2129.13 1029.96 2107.01 1030.11 2084.9 1029.81 2081.18 1029.77 2076.39 1028.88 2073.96 1026.51 2049.94 1003.16 2026.32 979.411 2002.62 955.744 2002.26 955.383 2002.33 954.592 2002 953.065 2026.24 953.065 2050.24 953.064 2074.24 953.066 2088.87 953.067 2103.51 952.831 2118.13 953.245 2121.81 953.349 2126.45 954.51 2128.94 956.918 2153 980.208 2176.72 1003.87 2200.51 1027.45 2200.84 1027.78 2200.73 1028.53 2201 1029.96 2184.99 1029.96 2169.13 1029.96 2152.27 1029.96Z" fill="#FCFCFC" fill-rule="evenodd"/><path d="M1652.65 984.776C1638.22 999.261 1624.38 1013.31 1610.3 1027.12 1608.07 1029.3 1604.79 1031.71 1601.95 1031.76 1577.86 1032.12 1553.76 1031.97 1529 1031.97 1529 1005.73 1529 980.112 1529 954 1579.64 954 1630.18 954 1683 954 1672.27 964.883 1662.71 974.574 1652.65 984.776Z" fill="#FCFCFC" fill-rule="evenodd"/><path d="M1407 1238.32C1407 1257.68 1407 1276.01 1407 1295 1381.2 1295 1356.04 1295 1330.02 1295 1330.02 1270.07 1329.93 1245.32 1330.16 1220.57 1330.18 1218.24 1331.73 1215.41 1333.43 1213.67 1356.71 1189.9 1380.14 1166.28 1403.57 1142.66 1404.17 1142.05 1405.18 1141.86 1407 1141 1407 1173.61 1407 1205.46 1407 1238.32Z" fill="#F9F9F9" fill-rule="evenodd"/><path d="M2215 1231.03C2215 1252.97 2215 1273.94 2215 1295.99 2192.42 1295.99 2170.68 1296.05 2148.96 1295.89 2147.16 1295.87 2144.98 1294.82 2143.67 1293.56 2118.38 1269.37 2093.2 1245.08 2068 1220.82 2068.71 1219.88 2069.41 1218.94 2070.12 1218 2118 1218 2165.88 1218 2215 1218 2215 1222.18 2215 1226.11 2215 1231.03Z" fill="#F8F8F8" fill-rule="evenodd"/><path d="M1780.06 1027.81C1755.99 1050.59 1732.43 1072.83 1710 1094 1710 1049.11 1710 1001.34 1710 953 1735.41 953 1760.66 953 1786.94 953 1786.94 974.894 1787.19 996.657 1786.66 1018.4 1786.59 1021.4 1782.69 1024.31 1780.06 1027.81Z" fill="#FBFBFB" fill-rule="evenodd"/><path d="M1494.39 1459.29C1494.34 1415.86 1494.28 1373.45 1494.2 1331.03 1494.2 1330.41 1493.89 1329.78 1493.29 1327.46 1488.46 1327.46 1483.04 1328.07 1477.88 1327.19 1475.35 1326.76 1473.28 1323.59 1471 1321.65 1473.37 1319.81 1475.65 1316.55 1478.15 1316.37 1487.24 1315.73 1496.41 1316.12 1506.62 1316.12 1506.62 1338.96 1506.62 1361.14 1506.62 1386.15 1511.6 1382.14 1514.52 1379.76 1517.49 1377.42 1536.64 1362.29 1565.51 1361.55 1581.83 1375.93 1591.49 1384.45 1596.62 1395 1596.46 1408.16 1596.2 1431.15 1596.39 1454.15 1596.39 1477.97 1601.69 1477.97 1606.24 1477.23 1610.35 1478.24 1612.91 1478.88 1614.8 1482.16 1617 1484.26 1614.96 1486.12 1612.97 1489.52 1610.87 1489.6 1597.22 1490.08 1583.53 1490.09 1569.88 1489.59 1567.77 1489.51 1565.79 1486 1563.75 1484.08 1565.75 1482.08 1567.47 1478.88 1569.8 1478.36 1574.01 1477.42 1578.59 1478.09 1583.67 1478.09 1583.67 1451.66 1585.49 1425.52 1583.09 1399.76 1581.18 1379.4 1548.87 1370.24 1529.3 1383.48 1521.51 1388.75 1515.07 1396.07 1508.45 1402.87 1506.85 1404.51 1506.44 1407.81 1506.42 1410.35 1506.27 1432.4 1506.34 1454.45 1506.34 1477.34 1511.18 1477.59 1516 1477.16 1520.38 1478.33 1522.88 1479 1524.67 1482.3 1526.79 1484.41 1524.73 1486.23 1522.73 1489.53 1520.61 1489.61 1507.31 1490.1 1493.96 1490.16 1480.66 1489.6 1478.31 1489.51 1476.12 1485.79 1473.86 1483.74 1475.94 1481.84 1477.77 1478.8 1480.15 1478.29 1484.34 1477.4 1488.86 1478.04 1494.39 1478.04 1494.39 1471.62 1494.39 1465.96 1494.39 1459.29Z" fill="#F0F0F0" fill-rule="evenodd"/><path d="M1035.85 1420.63C1016.84 1402.94 1020.11 1381.69 1043.26 1371.59 1066.16 1361.6 1088.82 1363.21 1109.31 1374.78 1113.57 1372.85 1116.88 1371.35 1120.2 1369.85 1121.39 1373.15 1123.35 1376.38 1123.63 1379.76 1124.15 1386.19 1124.1 1392.73 1123.47 1399.15 1123.27 1401.2 1120.83 1403.82 1118.81 1404.64 1117.46 1405.18 1113.53 1403.27 1113.29 1401.99 1111.32 1391.2 1105.55 1382.76 1094.98 1381.2 1081.83 1379.26 1068.26 1379.42 1054.93 1380 1050.38 1380.2 1045.47 1383.77 1041.66 1386.93 1032.45 1394.57 1033.01 1405.94 1043.75 1411.05 1052.09 1415.02 1061.81 1416.26 1071.02 1418.22 1081.95 1420.55 1093.29 1421.37 1103.92 1424.61 1120.32 1429.62 1129.52 1441.32 1129.98 1454.99 1130.47 1469.24 1121.06 1483.56 1105.38 1489.13 1079.51 1498.32 1054.12 1496.98 1031.94 1483.24 1027.79 1485.75 1024.55 1487.71 1021.3 1489.68 1019.94 1486.18 1017.68 1482.74 1017.39 1479.16 1016.81 1471.71 1016.88 1464.14 1017.56 1456.7 1017.76 1454.5 1020.82 1451.02 1022.7 1450.93 1024.68 1450.83 1028.43 1453.93 1028.63 1455.92 1030.2 1471.46 1041.32 1478.2 1053.98 1479.67 1068.79 1481.37 1084.31 1480.85 1099 1478.3 1110.85 1476.24 1118.29 1464.96 1118.18 1455.96 1118.06 1446.68 1111.71 1438.72 1098.58 1435.37 1083.85 1431.6 1068.58 1430.02 1053.66 1426.94 1047.78 1425.73 1042.21 1423.05 1035.85 1420.63Z" fill="#F2F2F2" fill-rule="evenodd"/><path d="M2015.01 1494.94C1978.43 1493.06 1952.93 1468.92 1950.18 1434.37 1947.72 1403.43 1970.5 1373.63 2001.35 1367.43 2034.81 1360.71 2066.76 1378.19 2077.31 1409.34 2093.28 1456.47 2054.59 1496.71 2015.01 1494.94M1971.26 1401.03C1957.1 1424.04 1959.42 1449.37 1977.33 1467.28 1994.56 1484.53 2023 1488.19 2043.14 1475.76 2064.87 1462.34 2074.61 1436.64 2066.02 1413 2059.12 1393.98 2045.05 1382.12 2025.08 1378.68 2003.44 1374.95 1985.61 1382.41 1971.26 1401.03Z" fill="#F2F2F2" fill-rule="evenodd"/><path d="M1722.37 1399.62C1737.33 1374.93 1758.48 1362.59 1786.42 1365.39 1812.53 1368.01 1831.01 1382.69 1840.66 1407.33 1851.52 1435.05 1841.43 1465.95 1816.81 1483.53 1793.69 1500.05 1760.13 1498.57 1738.42 1480.09 1714.6 1459.81 1708.39 1429.54 1722.37 1399.62M1826.78 1405.23C1821.98 1399.54 1817.86 1393.03 1812.26 1388.31 1795.52 1374.22 1769.87 1373.26 1751.45 1385.21 1732.46 1397.54 1723.15 1419.69 1727.98 1441.04 1735.01 1472.04 1765.93 1489.95 1796.09 1480.48 1826.9 1470.82 1840.65 1438.57 1826.78 1405.23Z" fill="#F2F2F2" fill-rule="evenodd"/><path d="M1287.61 1478.02C1316.63 1488.12 1341.66 1482.16 1364.24 1462.95 1366.56 1460.98 1370.7 1461.18 1374 1460.38 1373.51 1464.02 1374.38 1468.96 1372.34 1471.11 1348.53 1496.2 1298.71 1504.15 1271.35 1482.18 1248.39 1463.74 1240.61 1431.34 1252.56 1403.27 1263.7 1377.14 1292.93 1361.2 1321.93 1365.78 1327.91 1366.73 1333.92 1368.28 1339.55 1370.51 1345.17 1372.73 1350.33 1376.14 1356.2 1379.31 1356.76 1377.5 1356.88 1375.24 1358.02 1373.86 1359.56 1372.03 1362.12 1369.51 1363.83 1369.79 1365.7 1370.1 1368.42 1373.21 1368.51 1375.2 1368.97 1385.45 1368.96 1395.73 1368.48 1405.98 1368.39 1407.99 1365.2 1411.65 1364 1411.43 1361.67 1411.01 1358.21 1408.62 1357.89 1406.61 1354.23 1383.69 1326.74 1375.16 1303.86 1377.56 1281.68 1379.88 1264.44 1396.16 1260.36 1418.72 1255.62 1444.88 1264.32 1464.23 1287.61 1478.02Z" fill="#F2F2F2" fill-rule="evenodd"/><path d="M2252.41 1489.9C2235.47 1489.9 2219.52 1490.25 2203.6 1489.64 2199.85 1489.5 2193.25 1486.4 2193.05 1484.19 2192.34 1476.42 2199.3 1478.06 2204.03 1477.99 2217.53 1477.8 2231.03 1477.93 2245.02 1477.93 2245.02 1427.73 2245.02 1378.38 2245.02 1327.52 2234.25 1327.52 2223.88 1327.95 2213.58 1327.27 2210.36 1327.05 2207.35 1323.84 2204.23 1322 2207.18 1320.03 2210.07 1316.49 2213.11 1316.36 2227.28 1315.76 2241.5 1316.09 2256.73 1316.09 2256.73 1369.92 2256.73 1423.31 2256.73 1477.97 2271.53 1477.97 2285.32 1477.56 2299.04 1478.24 2302.79 1478.42 2306.36 1481.91 2310 1483.88 2306.4 1485.88 2302.85 1489.45 2299.19 1489.61 2283.96 1490.27 2268.68 1489.89 2252.41 1489.9Z" fill="#F9F9F9" fill-rule="evenodd"/><path d="M2484.34 1429.97C2487.23 1426.54 2489.65 1423.76 2492.83 1420.1 2481.72 1412.88 2480.48 1401.74 2480.81 1389.76 2481.2 1376.2 2481 1362.62 2480.89 1349.04 2480.79 1335.8 2476.91 1331.31 2464.1 1327.2 2461.3 1326.29 2459.35 1322.79 2457 1320.48 2460.04 1318.91 2463.05 1316.03 2466.11 1316 2478.99 1315.87 2490.7 1326.37 2491.84 1340.43 2493.14 1356.28 2492.81 1372.28 2492.83 1388.21 2492.85 1406.53 2493.9 1408.07 2511.04 1414.79 2513.31 1415.69 2516.1 1419.03 2516 1421.13 2515.91 1423.05 2512.55 1425.72 2510.11 1426.5 2495.78 1431.05 2493.12 1434.07 2492.89 1448.87 2492.66 1464.48 2493.1 1480.1 2492.58 1495.69 2492.06 1511.72 2482.21 1523.57 2468.09 1524.97 2464.58 1525.32 2460.72 1522.27 2457 1520.78 2459.68 1518.49 2462.02 1515.08 2465.12 1514.12 2475.83 1510.81 2480.64 1505.24 2480.83 1493.26 2481.04 1477.65 2480.67 1462.03 2481.06 1446.43 2481.2 1441.14 2482.87 1435.88 2484.34 1429.97Z" fill="#F0F0F0" fill-rule="evenodd"/><path d="M832.262 1495.31C832.232 1479.38 832.32 1464.37 832.202 1449.36 832.093 1435.29 828.573 1431.08 815.295 1426.77 812.794 1425.96 811.078 1422.66 809 1420.5 811.045 1418.6 812.784 1415.75 815.186 1414.95 829.35 1410.24 832.119 1406.77 832.248 1391.67 832.389 1375.3 831.851 1358.9 832.756 1342.58 833.612 1327.16 844.834 1315.84 858.15 1316 861.118 1316.04 864.052 1318.91 867 1320.48 864.608 1322.68 862.561 1325.97 859.764 1326.88 848.024 1330.69 843.889 1335.53 843.726 1348.24 843.539 1362.91 843.49 1377.58 843.75 1392.25 843.948 1403.28 842.474 1413.42 831.413 1420.57 843.057 1429.06 844.088 1440.56 843.758 1452.8 843.393 1466.43 843.539 1480.09 843.778 1493.73 844.002 1506.52 847.976 1510.97 860.032 1514.83 862.762 1515.71 864.683 1519.2 866.974 1521.48 863.975 1523.06 860.981 1525.99 857.975 1526 843.974 1526.07 834.178 1514.34 832.262 1495.31Z" fill="#F6F6F6" fill-rule="evenodd"/></g></svg>